<?xml version="1.0" encoding="UTF-8"?><svg id="Camada_2" xmlns="http://www.w3.org/2000/svg" viewBox="0 0 112.27 101.8"><defs><style>.cls-1{fill:#fff;}</style></defs><g id="Layer_1"><g><path class="cls-1" d="M59.41,65.51h0c-.39,3.86-2.58,5.88-5.95,5.88h-.07v-13.64c.7,0,1.46,0,2.18,0,2.23,0,3.88,2.42,3.88,6.54,0,.42-.02,.83-.06,1.22h.02Zm-1.38-12.46h0l-5.19,.02h-6.59v29.86h7.14v-6.9c.81,.12,1.63,.18,2.48,.18,8.62,0,10.72-6.91,10.72-11.57,0-.06,0-.12,0-.18-.07-6.88-3.54-11.4-8.56-11.4m-31,9.79h0c0-3.61,1.26-5.68,3.31-5.68s2.95,1.9,3,5.71l-6.31-.03Zm3.31-9.78h0c-6.21,0-10.79,5.26-10.79,12.47,0,4.66,2.21,11.57,11.27,11.57,3.16,0,6-.7,8.85-2.3v-4.36c-2.42,1.35-4.27,1.85-6.32,1.85-3.58,0-5.9-2.07-6.27-6.02h13.24c.16-9.02-4.34-13.21-9.97-13.21m51.83,18.89h0c-2.35,0-3.47-2.1-3.47-6.81,0-4.46,1.13-6.86,3.47-6.86s3.42,2.4,3.42,6.86c0,4.71-1.03,6.81-3.42,6.81m0-18.93c-5.3,0-10.5,4.36-10.5,12.12,0,6.91,4.41,12.07,10.5,12.07s10.55-5.06,10.55-12.07c0-7.51-5.02-12.12-10.55-12.12"/><path class="cls-1" d="M20.28,46.67h19.7V26.61H20.28v20.07Zm26.17,0h19.7V26.61h-19.7v20.07Zm26.22,0h19.7V26.61h-19.7v20.07Zm-26.22-26.61h19.7V0h-19.7V20.07Zm26.24,0h19.7V0h-19.7V20.07Z"/><rect class="cls-1" x="20.22" width="19.7" height="20.07"/><g><path class="cls-1" d="M.32,98.54c.82,.12,1.49,.19,2.24,.19,1.33,0,2.22-.23,2.22-1.37,0-.89-.46-1.26-1.57-1.54l-1.15-.29c-1.16-.3-2.06-.73-2.06-2.18,0-1.73,1.13-2.23,3.01-2.23,.71,0,1.61,.1,2.33,.22l-.11,.84c-.7-.1-1.38-.18-2.03-.18-1.49,0-2.16,.3-2.16,1.37,0,.88,.52,1.12,1.5,1.36l1.13,.28c1.39,.34,2.15,1,2.15,2.35,0,1.64-1.08,2.25-3.18,2.25-.85,0-1.52-.08-2.42-.23l.11-.84Z"/><path class="cls-1" d="M7.86,96.23h0v.24c0,1.69,.29,2.36,1.92,2.36s1.92-.68,1.92-2.36v-.24c0-1.57-.2-2.36-1.95-2.36-1.61,0-1.88,.71-1.88,2.36m-.94,.12c0-2.35,.53-3.29,2.85-3.29s2.85,.94,2.85,3.29-.54,3.29-2.85,3.29-2.85-.95-2.85-3.29"/></g><rect class="cls-1" x="14.39" y="90.49" width=".91" height="8.99"/><g><path class="cls-1" d="M21.55,93.24h.9v6.25h-.74l-.06-.49c-1.26,.43-1.94,.65-2.71,.65-1.15,0-1.63-.68-1.63-1.76v-4.64h.91v4.46c0,.83,.41,1.14,1.07,1.14,.6,0,1.16-.17,2.27-.52v-5.08Z"/><path class="cls-1" d="M26,101.1c.35,.06,.7,.12,.96,.12,.4,0,.64-.08,.64-.35,0-.2-.14-.28-.36-.35-.64-.22-.84-.31-.84-.79v-.13c-1.74-.1-2.18-.95-2.18-3.17,0-2.34,.46-3.31,2.73-3.31,.54,0,1.38,.1,2.01,.22l-.11,.76c-.66-.11-1.2-.17-1.79-.17-1.71,0-1.91,.82-1.91,2.31v.17c0,1.72,.24,2.42,1.73,2.42,.59,0,1.39-.19,1.94-.29,.05,.24,.08,.48,.13,.72-.44,.13-1.32,.3-1.98,.34v.14c0,.12,.18,.17,.32,.22,.6,.22,.94,.42,.94,.92,0,.62-.53,.91-1.25,.91-.36,0-.71-.06-1.08-.14l.08-.55Z"/><path class="cls-1" d="M32.91,91.74h0l-.31-.22c-.18-.12-.35-.23-.48-.23-.31,0-.42,.16-.64,.66l-.53-.17c.32-.98,.68-1.16,1.15-1.16,.25,0,.52,.14,.67,.25l.31,.2c.17,.11,.36,.23,.48,.23,.31,0,.43-.16,.64-.66l.53,.17c-.32,.98-.68,1.16-1.15,1.16-.24,0-.48-.11-.67-.24m-1.99,4.5h0v.24c0,1.69,.29,2.36,1.92,2.36s1.92-.68,1.92-2.36v-.24c0-1.57-.2-2.36-1.95-2.36-1.61,0-1.88,.71-1.88,2.36m-.94,.12c0-2.35,.53-3.29,2.85-3.29s2.85,.94,2.85,3.29-.54,3.29-2.85,3.29-2.85-.95-2.85-3.29"/><path class="cls-1" d="M38.13,95.95h3.41c.01-.16,.02-.31,.02-.46,0-.96-.4-1.67-1.53-1.67-1.6,0-1.89,.73-1.89,2.12m3.91,3.47c-.54,.1-1.45,.2-2.03,.2-2.17,0-2.82-.79-2.82-3.29s.68-3.25,2.85-3.25c1.67,0,2.35,.96,2.35,2.51,0,.3-.02,.79-.07,1.12h-4.2c0,1.39,.28,2.15,2,2.15,.65,0,1.25-.1,1.81-.17,.04,.24,.06,.49,.1,.73"/><path class="cls-1" d="M43.7,98.63c.64,.08,1.2,.16,1.91,.16,1,0,1.63-.1,1.63-.94,0-.68-.38-.89-1.18-1.07l-.97-.22c-.95-.22-1.62-.55-1.62-1.74,0-1.34,.86-1.72,2.43-1.72,.59,0,1.31,.08,1.89,.18l-.1,.77c-.6-.07-1.13-.14-1.77-.14-1.08,0-1.52,.17-1.52,.95,0,.67,.41,.78,1.13,.94l.95,.2c1.14,.24,1.72,.74,1.72,1.84,0,1.33-.88,1.77-2.59,1.77-.66,0-1.3-.07-2-.19l.1-.79Z"/></g><rect class="cls-1" x="52.64" y="91.26" width="1" height="8.23"/><g><path class="cls-1" d="M56.71,99.48h-.91v-6.25h.76l.06,.49c1.26-.43,1.95-.65,2.7-.65,1.16,0,1.63,.68,1.63,1.77v4.63h-.9v-4.45c0-.83-.42-1.15-1.07-1.15-.6,0-1.18,.18-2.27,.52v5.08Z"/><path class="cls-1" d="M63.6,96.23h0v.24c0,1.69,.29,2.36,1.92,2.36s1.92-.68,1.92-2.36v-.24c0-1.57-.2-2.36-1.95-2.36-1.61,0-1.88,.71-1.88,2.36m-.94,.12c0-2.35,.53-3.29,2.85-3.29s2.85,.94,2.85,3.29-.54,3.29-2.85,3.29-2.85-.95-2.85-3.29"/></g><polygon class="cls-1" points="72.15 98.79 72.17 98.79 74.16 93.24 75.17 93.24 72.8 99.48 71.52 99.48 69.16 93.24 70.17 93.24 72.15 98.79"/><g><path class="cls-1" d="M77.8,98.86h0c.58,0,1.18-.23,2.04-.59v-1.79c-2.37,.16-3.2,.36-3.15,1.43,.04,.74,.46,.95,1.11,.95m2.95,.62h-.74l-.06-.59c-.77,.37-1.54,.76-2.31,.76-1.09,0-1.81-.5-1.85-1.68-.05-1.61,.96-2.05,4.05-2.22v-.49c0-.82-.22-1.36-1.46-1.36-.61,0-1.36,.07-2.03,.17l-.11-.78c.77-.11,1.55-.18,2.27-.18,1.74,0,2.24,.76,2.24,1.99v4.38Z"/><path class="cls-1" d="M83.37,96.63h0c0,1.42,.25,2.21,1.28,2.21,.56,0,1.26-.2,2.19-.52v-4.27c-.48-.05-.95-.11-1.53-.11-1.68,0-1.94,.77-1.94,2.25v.43Zm4.39,2.85h-.74l-.06-.49c-.95,.36-1.73,.65-2.53,.65-1.53,0-1.99-1.03-1.99-3.21,0-2.41,.58-3.27,2.94-3.27,.49,0,1.02,.06,1.48,.11v-2.77h.91v8.99Z"/><path class="cls-1" d="M90.46,96.23h0v.24c0,1.69,.29,2.36,1.92,2.36s1.92-.68,1.92-2.36v-.24c0-1.57-.2-2.36-1.95-2.36-1.61,0-1.88,.71-1.88,2.36m-.94,.12c0-2.35,.53-3.29,2.85-3.29s2.85,.94,2.85,3.29-.54,3.29-2.85,3.29-2.85-.95-2.85-3.29"/><path class="cls-1" d="M97.91,99.48h-.91v-6.25h.79l.05,1.06c.94-.82,1.36-1.18,2.15-1.18,.3,0,.42,.04,.54,.06l-.13,1c-.13-.01-.38-.04-.54-.04-.61,0-1.03,.18-1.94,.8v4.55Z"/><path class="cls-1" d="M103.11,98.86h0c.58,0,1.18-.23,2.04-.59v-1.79c-2.37,.16-3.2,.36-3.15,1.43,.04,.74,.46,.95,1.12,.95m2.95,.62h-.74l-.06-.59c-.77,.37-1.53,.76-2.31,.76-1.09,0-1.81-.5-1.85-1.68-.05-1.61,.96-2.05,4.05-2.22v-.49c0-.82-.22-1.36-1.46-1.36-.61,0-1.36,.07-2.03,.17l-.11-.78c.77-.11,1.55-.18,2.27-.18,1.74,0,2.24,.76,2.24,1.99v4.38Z"/><path class="cls-1" d="M107.77,98.63c.64,.08,1.2,.16,1.91,.16,1,0,1.63-.1,1.63-.94,0-.68-.38-.89-1.18-1.07l-.97-.22c-.95-.22-1.62-.55-1.62-1.74,0-1.34,.86-1.72,2.43-1.72,.59,0,1.31,.08,1.89,.18l-.1,.77c-.6-.07-1.13-.14-1.77-.14-1.08,0-1.52,.17-1.52,.95,0,.67,.41,.78,1.13,.94l.95,.2c1.14,.24,1.71,.74,1.71,1.84,0,1.33-.88,1.77-2.59,1.77-.66,0-1.3-.07-2-.19l.1-.79Z"/></g></g></g></svg>